<svg xmlns="http://www.w3.org/2000/svg" version="1.1" xmlns:xlink="http://www.w3.org/1999/xlink" xmlns:svgjs="http://svgjs.com/svgjs" width="512" height="512" x="0" y="0" viewBox="0 0 512 512" style="enable-background:new 0 0 512 512" xml:space="preserve" class=""><g><circle cx="256" cy="256" r="256" style="" fill="#ffd93b" data-original="#ffd93b"></circle><path d="M512 256c0 141.44-114.64 256-256 256-80.48 0-152.32-37.12-199.28-95.28 43.92 35.52 99.84 56.72 160.72 56.72 141.36 0 256-114.56 256-256 0-60.88-21.2-116.8-56.72-160.72C474.8 103.68 512 175.52 512 256z" style="" fill="#f4c534" data-original="#f4c534"></path><circle cx="256" cy="398.784" r="44.816" style="" fill="#3e4347" data-original="#3e4347"></circle><path d="M400.032 250.144c0 31.936-26.08 57.888-58.016 57.888S284 282.08 284 250.144C284 218.08 310.08 192 342.016 192s58.016 26.08 58.016 58.144z" style="" fill="#ffffff" data-original="#ffffff"></path><circle cx="341.968" cy="250.096" r="26.832" style="" fill="#3e4347" data-original="#3e4347"></circle><path d="M356.48 247.536c-2.4 1.584-6.208.32-8.4-2.848-2.192-3.168-1.936-7.024.464-8.608s6.208-.32 8.4 2.848c2.096 3.168 1.952 7.024-.464 8.608z" style="" fill="#5a5f63" data-original="#5a5f63"></path><path d="M414.576 176.512c1.888 9.424 1.424 18.576-1.024 27.104-11.36-31.648-44.112-51.296-78.192-45.152l-.416.08c-12.208 2.256-18.752-13.712-8.128-20.224 8.448-5.184 18.512-8.368 29.456-8.672 27.904-.736 52.88 19.568 58.304 46.864z" style="" fill="#e9b02c" data-original="#e9b02c"></path><path d="M111.968 250.144c0 31.936 26.08 57.888 58.016 57.888S228 282.08 228 250.144C228 218.08 201.92 192 169.984 192s-58.016 26.08-58.016 58.144z" style="" fill="#ffffff" data-original="#ffffff"></path><circle cx="170.032" cy="250.096" r="26.832" style="" fill="#3e4347" data-original="#3e4347"></circle><path d="M155.52 247.536c2.4 1.584 6.208.32 8.4-2.848 2.192-3.168 1.936-7.024-.464-8.608-2.4-1.584-6.208-.32-8.4 2.848-2.096 3.168-1.952 7.024.464 8.608z" style="" fill="#5a5f63" data-original="#5a5f63"></path><path d="M97.424 176.512c-1.888 9.424-1.424 18.592 1.024 27.104 11.36-31.648 44.112-51.296 78.192-45.152l.416.08c12.208 2.256 18.752-13.712 8.128-20.224-8.448-5.184-18.512-8.368-29.456-8.672-27.904-.736-52.88 19.568-58.304 46.864z" style="" fill="#e9b02c" data-original="#e9b02c"></path></g></svg>