<svg xmlns="http://www.w3.org/2000/svg" version="1.1" xmlns:xlink="http://www.w3.org/1999/xlink" xmlns:svgjs="http://svgjs.com/svgjs" width="512" height="512" x="0" y="0" viewBox="0 0 512 512" style="enable-background:new 0 0 512 512" xml:space="preserve" class=""><g><path d="M512 256c0 141.44-114.72 256-256 256C114.56 512 0 397.44 0 256 0 114.72 114.56 0 256 0c141.28 0 256 114.72 256 256z" style="" fill="#e24b4b" data-original="#e24b4b" class=""></path><path d="M512 256c0 141.44-114.72 256-256 256-80.64 0-152.64-37.28-199.36-95.52 43.84 35.2 99.36 56.16 160 56.16 141.28 0 256-114.56 256-256 0-60.64-20.96-116.16-56.32-160C474.72 103.52 512 175.36 512 256z" style="" fill="#d03f3f" data-original="#d03f3f"></path><path d="M368.256 278.304c17.488-14.816 19.728-40.912 4.912-58.4-5.696-6.848-13.168-11.248-20.976-13.104 11.376-6.4 24.288-8.496 37.152-7.568 6.576.464 12.352-4.464 12.752-11.168.464-6.56-4.464-12.352-11.168-12.752-47.248-3.52-85.568 27.84-91.44 59.392-6.224 39.264 38.128 69.552 68.768 43.6zM143.744 278.304c-17.488-14.816-19.728-40.912-4.912-58.4 5.696-6.848 13.168-11.248 20.976-13.104-11.376-6.4-24.288-8.496-37.152-7.568-6.576.464-12.352-4.464-12.752-11.168-.464-6.56 4.464-12.352 11.168-12.752 47.248-3.52 85.568 27.84 91.44 59.392 6.224 39.264-38.128 69.552-68.768 43.6zM336.768 407.84c-53.76-18.72-107.68-18.72-161.6 0-13.92 4.96-26.4-10.88-17.28-22.56 19.52-25.44 56.16-42.56 98.08-42.56 42.08 0 78.56 17.12 98.24 42.56 8.96 11.68-3.52 27.52-17.44 22.56z" style="" fill="#3e4347" data-original="#3e4347"></path><path d="M365.008 241.696c-3.152 2-8.016-.096-10.976-4.656-2.832-4.592-2.688-9.888.464-11.872 3.28-2.032 8.144.048 10.976 4.656 2.96 4.544 2.688 9.872-.464 11.872zM195.584 240.544c-3.456 1.392-7.856-1.504-9.936-6.496-1.936-5.008-.848-10.16 2.608-11.552 3.584-1.408 8 1.488 9.936 6.496 2.08 4.976.848 10.16-2.608 11.552z" style="" fill="#5a5f63" data-original="#5a5f63"></path></g></svg>