<svg xmlns="http://www.w3.org/2000/svg" version="1.1" xmlns:xlink="http://www.w3.org/1999/xlink" xmlns:svgjs="http://svgjs.com/svgjs" width="512" height="512" x="0" y="0" viewBox="0 0 512 512" style="enable-background:new 0 0 512 512" xml:space="preserve" class=""><g><circle cx="256" cy="256" r="256" style="" fill="#ffd93b" data-original="#ffd93b" class=""></circle><path d="M512 256c0 141.44-114.64 256-256 256-80.48 0-152.32-37.12-199.28-95.28 43.92 35.52 99.84 56.72 160.72 56.72 141.36 0 256-114.56 256-256 0-60.88-21.2-116.8-56.72-160.72C474.8 103.68 512 175.52 512 256z" style="" fill="#f4c534" data-original="#f4c534"></path><path d="M370.56 344.4c0 7.696-6.224 13.92-13.92 13.92H155.344c-7.616 0-13.92-6.224-13.92-13.92s6.304-13.92 13.92-13.92H356.64c7.712.016 13.92 6.224 13.92 13.92z" style="" fill="#3e4347" data-original="#3e4347" class=""></path><circle cx="174.512" cy="207.088" r="38.144" style="" fill="#3e4347" data-original="#3e4347" class=""></circle><ellipse cx="190.667" cy="191.518" rx="10.016" ry="6.48" style="" transform="scale(-1) rotate(53.347 381.215 -379.522)" fill="#5a5f63" data-original="#5a5f63"></ellipse><circle cx="337.44" cy="207.088" r="38.144" style="" fill="#3e4347" data-original="#3e4347" class=""></circle><ellipse cx="353.586" cy="191.533" rx="10.016" ry="6.48" style="" transform="scale(-1) rotate(53.343 381.305 -703.919)" fill="#5a5f63" data-original="#5a5f63"></ellipse></g></svg>